# xmcd
#
# Track frame offsets:
# 150
# 20736
# 41435
# 60900
# 79552
# 101119
# 118997
# 137767
# 157647
# 184582
# 202135
# 217797
# 239515
# 259119
# 277269
# 298552
#
# Disc length: 4343 seconds
#
#
# Revision: 0
# Processed by: cddbd v1.5.1PL0 Copyright (c) Steve Scherf et al.
# Submitted via: FreeRIP 2.931 
#
DISCID=e610f510
DTITLE=Chris Rea - The Best of Chris Rea
DYEAR=1900
DGENRE=Blues
TTITLE0=The Road to Hell
TTITLE1=Josephine
TTITLE2=Lets Dance
TTITLE3=Fool
TTITLE4=Auberge
TTITLE5=Julia
TTITLE6=Stainsby Girls
TTITLE7=If You Were Me
TTITLE8=On the Beach
TTITLE9=Looking for the Summer
TTITLE10=I Can Hear Your Heartbeat
TTITLE11=the Blue Cafe
TTITLE12=God's Great Banana Skin
TTITLE13=Driving Home for Christmas
TTITLE14=Gone Fishing
TTITLE15=Tell Me There's A Heaven
EXTD=
EXTT0=
EXTT1=
EXTT2=
EXTT3=
EXTT4=
EXTT5=
EXTT6=
EXTT7=
EXTT8=
EXTT9=
EXTT10=
EXTT11=
EXTT12=
EXTT13=
EXTT14=
EXTT15=
PLAYORDER=
